<mxfile host="app.diagrams.net" agent="Mozilla/5.0 (Windows NT 10.0; Win64; x64) AppleWebKit/537.36 (KHTML, like Gecko) Chrome/127.0.0.0 Safari/537.36" version="24.7.6">
  <diagram name="PÃ¡gina-1" id="9qlNr7wta5PkOca2tHXL">
    <mxGraphModel dx="2941" dy="2021" grid="1" gridSize="10" guides="1" tooltips="1" connect="1" arrows="1" fold="1" page="1" pageScale="1" pageWidth="827" pageHeight="1169" math="0" shadow="0">
      <root>
        <mxCell id="0" />
        <mxCell id="1" parent="0" />
        <mxCell id="b0C4ROp1VI93CXsgBm_J-38" style="edgeStyle=orthogonalEdgeStyle;rounded=0;orthogonalLoop=1;jettySize=auto;html=1;exitX=1;exitY=0.5;exitDx=0;exitDy=0;entryX=0;entryY=0.25;entryDx=0;entryDy=0;" edge="1" parent="1" source="h94O3ctoCfD6Bnhmqkuq-2" target="b0C4ROp1VI93CXsgBm_J-8">
          <mxGeometry relative="1" as="geometry" />
        </mxCell>
        <mxCell id="b0C4ROp1VI93CXsgBm_J-39" style="edgeStyle=orthogonalEdgeStyle;rounded=0;orthogonalLoop=1;jettySize=auto;html=1;exitX=1.008;exitY=0.369;exitDx=0;exitDy=0;entryX=0;entryY=0.12;entryDx=0;entryDy=0;entryPerimeter=0;exitPerimeter=0;" edge="1" parent="1" source="h94O3ctoCfD6Bnhmqkuq-2" target="b0C4ROp1VI93CXsgBm_J-13">
          <mxGeometry relative="1" as="geometry">
            <mxPoint x="540" y="340" as="targetPoint" />
            <Array as="points">
              <mxPoint x="210" y="261" />
              <mxPoint x="470" y="261" />
              <mxPoint x="470" y="360" />
              <mxPoint x="520" y="360" />
              <mxPoint x="520" y="392" />
            </Array>
          </mxGeometry>
        </mxCell>
        <mxCell id="h94O3ctoCfD6Bnhmqkuq-2" value="&lt;div style=&quot;box-sizing:border-box;width:100%;background:#e4e4e4;padding:2px;&quot;&gt;Jugadores&amp;nbsp; &amp;nbsp; &amp;nbsp; &amp;nbsp; &amp;nbsp; &amp;nbsp; &amp;nbsp; &amp;nbsp; &amp;nbsp; &amp;nbsp; &amp;nbsp; &amp;nbsp; &amp;nbsp; &amp;nbsp; &amp;nbsp; &amp;nbsp; &amp;nbsp;&amp;nbsp;&lt;/div&gt;" style="verticalAlign=top;align=left;overflow=fill;html=1;whiteSpace=wrap;" parent="1" vertex="1">
          <mxGeometry x="20" y="220" width="180" height="110" as="geometry" />
        </mxCell>
        <mxCell id="h94O3ctoCfD6Bnhmqkuq-3" value="&lt;div style=&quot;box-sizing:border-box;width:100%;background:#e4e4e4;padding:2px;&quot;&gt;Entrenadores&lt;/div&gt;&lt;table style=&quot;width:100%;font-size:1em;&quot; cellpadding=&quot;2&quot; cellspacing=&quot;0&quot;&gt;&lt;tbody&gt;&lt;tr&gt;&lt;td&gt;PK&amp;nbsp; &amp;nbsp; &amp;nbsp; &amp;nbsp; &amp;nbsp; &amp;nbsp; &amp;nbsp; &amp;nbsp;id_entrenador&lt;br&gt;&amp;nbsp; &amp;nbsp; &amp;nbsp; &amp;nbsp; &amp;nbsp; &amp;nbsp; &amp;nbsp; &amp;nbsp; &amp;nbsp; &amp;nbsp; &amp;nbsp;nombre&lt;br&gt;&amp;nbsp; &amp;nbsp; &amp;nbsp; &amp;nbsp; &amp;nbsp; &amp;nbsp; &amp;nbsp; &amp;nbsp; &amp;nbsp; &amp;nbsp; apellido&lt;/td&gt;&lt;td&gt;&lt;/td&gt;&lt;/tr&gt;&lt;/tbody&gt;&lt;/table&gt;" style="verticalAlign=top;align=left;overflow=fill;html=1;whiteSpace=wrap;" parent="1" vertex="1">
          <mxGeometry x="480" y="-40" width="180" height="90" as="geometry" />
        </mxCell>
        <mxCell id="b0C4ROp1VI93CXsgBm_J-27" style="edgeStyle=orthogonalEdgeStyle;rounded=0;orthogonalLoop=1;jettySize=auto;html=1;exitX=1.006;exitY=0.795;exitDx=0;exitDy=0;exitPerimeter=0;entryX=0.029;entryY=0.12;entryDx=0;entryDy=0;entryPerimeter=0;" edge="1" parent="1" source="h94O3ctoCfD6Bnhmqkuq-5" target="b0C4ROp1VI93CXsgBm_J-13">
          <mxGeometry relative="1" as="geometry">
            <mxPoint x="530" y="390" as="targetPoint" />
            <Array as="points">
              <mxPoint x="490" y="461" />
              <mxPoint x="490" y="392" />
            </Array>
          </mxGeometry>
        </mxCell>
        <mxCell id="b0C4ROp1VI93CXsgBm_J-31" style="edgeStyle=orthogonalEdgeStyle;rounded=0;orthogonalLoop=1;jettySize=auto;html=1;exitX=0.978;exitY=0.858;exitDx=0;exitDy=0;exitPerimeter=0;entryX=-0.014;entryY=0.14;entryDx=0;entryDy=0;entryPerimeter=0;" edge="1" parent="1" source="h94O3ctoCfD6Bnhmqkuq-5" target="b0C4ROp1VI93CXsgBm_J-13">
          <mxGeometry relative="1" as="geometry">
            <mxPoint x="510" y="340" as="targetPoint" />
            <Array as="points">
              <mxPoint x="490" y="473" />
              <mxPoint x="490" y="391" />
              <mxPoint x="540" y="391" />
              <mxPoint x="540" y="394" />
            </Array>
          </mxGeometry>
        </mxCell>
        <mxCell id="b0C4ROp1VI93CXsgBm_J-32" style="edgeStyle=orthogonalEdgeStyle;rounded=0;orthogonalLoop=1;jettySize=auto;html=1;exitX=1;exitY=0.716;exitDx=0;exitDy=0;exitPerimeter=0;entryX=-0.021;entryY=0.12;entryDx=0;entryDy=0;entryPerimeter=0;" edge="1" parent="1" source="h94O3ctoCfD6Bnhmqkuq-5" target="b0C4ROp1VI93CXsgBm_J-13">
          <mxGeometry relative="1" as="geometry">
            <mxPoint x="520" y="490" as="targetPoint" />
            <Array as="points">
              <mxPoint x="490" y="446" />
              <mxPoint x="490" y="392" />
            </Array>
          </mxGeometry>
        </mxCell>
        <mxCell id="b0C4ROp1VI93CXsgBm_J-33" style="edgeStyle=orthogonalEdgeStyle;rounded=0;orthogonalLoop=1;jettySize=auto;html=1;exitX=0.031;exitY=0.482;exitDx=0;exitDy=0;entryX=1;entryY=0.25;entryDx=0;entryDy=0;exitPerimeter=0;" edge="1" parent="1" source="b0C4ROp1VI93CXsgBm_J-17" target="b0C4ROp1VI93CXsgBm_J-2">
          <mxGeometry relative="1" as="geometry">
            <Array as="points">
              <mxPoint x="220" y="412" />
              <mxPoint x="220" y="373" />
            </Array>
          </mxGeometry>
        </mxCell>
        <mxCell id="b0C4ROp1VI93CXsgBm_J-37" style="edgeStyle=orthogonalEdgeStyle;rounded=0;orthogonalLoop=1;jettySize=auto;html=1;exitX=0;exitY=0.588;exitDx=0;exitDy=0;entryX=1;entryY=0.25;entryDx=0;entryDy=0;exitPerimeter=0;" edge="1" parent="1" source="b0C4ROp1VI93CXsgBm_J-17" target="b0C4ROp1VI93CXsgBm_J-6">
          <mxGeometry relative="1" as="geometry" />
        </mxCell>
        <mxCell id="h94O3ctoCfD6Bnhmqkuq-5" value="&lt;div style=&quot;box-sizing:border-box;width:100%;background:#e4e4e4;padding:2px;&quot;&gt;Partidos&lt;/div&gt;" style="verticalAlign=top;align=left;overflow=fill;html=1;whiteSpace=wrap;" parent="1" vertex="1">
          <mxGeometry x="270" y="310" width="180" height="190" as="geometry" />
        </mxCell>
        <mxCell id="b0C4ROp1VI93CXsgBm_J-2" value="&lt;div style=&quot;box-sizing:border-box;width:100%;background:#e4e4e4;padding:2px;&quot;&gt;Estadios&lt;/div&gt;" style="verticalAlign=top;align=left;overflow=fill;html=1;whiteSpace=wrap;" vertex="1" parent="1">
          <mxGeometry x="20" y="350" width="180" height="90" as="geometry" />
        </mxCell>
        <mxCell id="b0C4ROp1VI93CXsgBm_J-3" value="&lt;div style=&quot;box-sizing:border-box;width:100%;background:#e4e4e4;padding:2px;&quot;&gt;Goles&lt;/div&gt;" style="verticalAlign=top;align=left;overflow=fill;html=1;whiteSpace=wrap;" vertex="1" parent="1">
          <mxGeometry x="20" y="450" width="180" height="130" as="geometry" />
        </mxCell>
        <mxCell id="b0C4ROp1VI93CXsgBm_J-4" value="&lt;div style=&quot;box-sizing:border-box;width:100%;background:#e4e4e4;padding:2px;&quot;&gt;Arbitros&lt;/div&gt;" style="verticalAlign=top;align=left;overflow=fill;html=1;whiteSpace=wrap;" vertex="1" parent="1">
          <mxGeometry x="450" y="690" width="120" height="90" as="geometry" />
        </mxCell>
        <mxCell id="b0C4ROp1VI93CXsgBm_J-48" style="edgeStyle=orthogonalEdgeStyle;rounded=0;orthogonalLoop=1;jettySize=auto;html=1;exitX=1.001;exitY=0.604;exitDx=0;exitDy=0;entryX=0;entryY=0.25;entryDx=0;entryDy=0;exitPerimeter=0;" edge="1" parent="1" source="b0C4ROp1VI93CXsgBm_J-5" target="b0C4ROp1VI93CXsgBm_J-4">
          <mxGeometry relative="1" as="geometry" />
        </mxCell>
        <mxCell id="b0C4ROp1VI93CXsgBm_J-5" value="&lt;div style=&quot;box-sizing:border-box;width:100%;background:#e4e4e4;padding:2px;&quot;&gt;amonestaciones&lt;/div&gt;" style="verticalAlign=top;align=left;overflow=fill;html=1;whiteSpace=wrap;" vertex="1" parent="1">
          <mxGeometry x="200" y="600" width="180" height="190" as="geometry" />
        </mxCell>
        <mxCell id="b0C4ROp1VI93CXsgBm_J-6" value="&lt;div style=&quot;box-sizing:border-box;width:100%;background:#e4e4e4;padding:2px;&quot;&gt;Fases&lt;/div&gt;&lt;table style=&quot;width:100%;font-size:1em;&quot; cellpadding=&quot;2&quot; cellspacing=&quot;0&quot;&gt;&lt;tbody&gt;&lt;tr&gt;&lt;td&gt;PK&lt;/td&gt;&lt;td&gt;nombre&amp;nbsp;&lt;/td&gt;&lt;/tr&gt;&lt;tr&gt;&lt;td&gt;&lt;br&gt;&lt;/td&gt;&lt;td&gt;&lt;br&gt;&lt;/td&gt;&lt;/tr&gt;&lt;/tbody&gt;&lt;/table&gt;" style="verticalAlign=top;align=left;overflow=fill;html=1;whiteSpace=wrap;" vertex="1" parent="1">
          <mxGeometry x="200" y="-40" width="180" height="90" as="geometry" />
        </mxCell>
        <mxCell id="b0C4ROp1VI93CXsgBm_J-8" value="&lt;div style=&quot;box-sizing:border-box;width:100%;background:#e4e4e4;padding:2px;&quot;&gt;posiciones&lt;/div&gt;&lt;table style=&quot;width:100%;font-size:1em;&quot; cellpadding=&quot;2&quot; cellspacing=&quot;0&quot;&gt;&lt;tbody&gt;&lt;tr&gt;&lt;td&gt;PK&amp;nbsp;&amp;nbsp;&lt;/td&gt;&lt;td&gt;posiciones&lt;/td&gt;&lt;/tr&gt;&lt;tr&gt;&lt;td&gt;&lt;br&gt;&lt;/td&gt;&lt;td&gt;&lt;/td&gt;&lt;/tr&gt;&lt;tr&gt;&lt;td&gt;&lt;/td&gt;&lt;td&gt;&lt;br&gt;&lt;/td&gt;&lt;/tr&gt;&lt;/tbody&gt;&lt;/table&gt;" style="verticalAlign=top;align=left;overflow=fill;html=1;whiteSpace=wrap;" vertex="1" parent="1">
          <mxGeometry x="200" y="70" width="180" height="90" as="geometry" />
        </mxCell>
        <mxCell id="b0C4ROp1VI93CXsgBm_J-10" value="&lt;div style=&quot;box-sizing:border-box;width:100%;background:#e4e4e4;padding:2px;&quot;&gt;Ubicaciones&lt;/div&gt;&lt;table style=&quot;width:100%;font-size:1em;&quot; cellpadding=&quot;2&quot; cellspacing=&quot;0&quot;&gt;&lt;tbody&gt;&lt;tr&gt;&lt;td&gt;PK&lt;/td&gt;&lt;td&gt;nombre&lt;/td&gt;&lt;/tr&gt;&lt;tr&gt;&lt;td&gt;&lt;br&gt;&lt;/td&gt;&lt;td&gt;&lt;br&gt;&lt;/td&gt;&lt;/tr&gt;&lt;/tbody&gt;&lt;/table&gt;" style="verticalAlign=top;align=left;overflow=fill;html=1;whiteSpace=wrap;" vertex="1" parent="1">
          <mxGeometry x="480" y="210" width="180" height="90" as="geometry" />
        </mxCell>
        <mxCell id="b0C4ROp1VI93CXsgBm_J-45" style="edgeStyle=orthogonalEdgeStyle;rounded=0;orthogonalLoop=1;jettySize=auto;html=1;exitX=1;exitY=0.5;exitDx=0;exitDy=0;entryX=1;entryY=0.25;entryDx=0;entryDy=0;" edge="1" parent="1" source="b0C4ROp1VI93CXsgBm_J-11" target="b0C4ROp1VI93CXsgBm_J-6">
          <mxGeometry relative="1" as="geometry">
            <Array as="points">
              <mxPoint x="740" y="415" />
              <mxPoint x="740" y="90" />
              <mxPoint x="430" y="90" />
              <mxPoint x="430" y="-17" />
            </Array>
          </mxGeometry>
        </mxCell>
        <mxCell id="b0C4ROp1VI93CXsgBm_J-46" style="edgeStyle=orthogonalEdgeStyle;rounded=0;orthogonalLoop=1;jettySize=auto;html=1;exitX=1.001;exitY=0.62;exitDx=0;exitDy=0;entryX=1;entryY=0.25;entryDx=0;entryDy=0;exitPerimeter=0;" edge="1" parent="1" source="b0C4ROp1VI93CXsgBm_J-11" target="h94O3ctoCfD6Bnhmqkuq-3">
          <mxGeometry relative="1" as="geometry">
            <Array as="points">
              <mxPoint x="760" y="426" />
              <mxPoint x="760" y="-17" />
            </Array>
          </mxGeometry>
        </mxCell>
        <mxCell id="b0C4ROp1VI93CXsgBm_J-11" value="&lt;div style=&quot;box-sizing:border-box;width:100%;background:#e4e4e4;padding:2px;&quot;&gt;Equipos&lt;/div&gt;" style="verticalAlign=top;align=left;overflow=fill;html=1;whiteSpace=wrap;" vertex="1" parent="1">
          <mxGeometry x="540" y="370" width="180" height="90" as="geometry" />
        </mxCell>
        <mxCell id="b0C4ROp1VI93CXsgBm_J-13" value="PK&amp;nbsp; &amp;nbsp; &amp;nbsp; &amp;nbsp;id_equipo&lt;div&gt;FK&amp;nbsp; &amp;nbsp; &amp;nbsp; &amp;nbsp;fase&lt;/div&gt;&lt;div&gt;FK&amp;nbsp; &amp;nbsp; &amp;nbsp; &amp;nbsp;id_entrenador&lt;/div&gt;&lt;div&gt;&amp;nbsp; &amp;nbsp; &amp;nbsp; &amp;nbsp; &amp;nbsp; &amp;nbsp; pais&lt;/div&gt;&lt;div&gt;&amp;nbsp; &amp;nbsp; &amp;nbsp; &amp;nbsp; &amp;nbsp; &amp;nbsp; &amp;nbsp; &amp;nbsp; &amp;nbsp; &amp;nbsp; &amp;nbsp; &amp;nbsp; &amp;nbsp; &amp;nbsp; &amp;nbsp; &amp;nbsp; &amp;nbsp;&lt;/div&gt;&lt;div&gt;&amp;nbsp; &amp;nbsp; &amp;nbsp; &amp;nbsp; &amp;nbsp; &amp;nbsp; &amp;nbsp; &amp;nbsp; &amp;nbsp; &amp;nbsp; &amp;nbsp; &amp;nbsp;&lt;/div&gt;" style="text;html=1;align=left;verticalAlign=middle;resizable=1;points=[];autosize=1;strokeColor=none;fillColor=none;movable=1;rotatable=1;deletable=1;editable=1;locked=0;connectable=1;" vertex="1" parent="1">
          <mxGeometry x="540" y="380" width="140" height="100" as="geometry" />
        </mxCell>
        <mxCell id="b0C4ROp1VI93CXsgBm_J-16" value="PK&amp;nbsp; &amp;nbsp; &amp;nbsp; &amp;nbsp; &amp;nbsp; &amp;nbsp; &amp;nbsp; id_jugador&amp;nbsp;&lt;div&gt;&lt;span style=&quot;background-color: initial;&quot;&gt;FK&amp;nbsp; &amp;nbsp; &amp;nbsp; &amp;nbsp; &amp;nbsp; &amp;nbsp; &amp;nbsp; id_equipo&lt;/span&gt;&lt;/div&gt;&lt;div&gt;FK&amp;nbsp; &amp;nbsp; &amp;nbsp; &amp;nbsp; &amp;nbsp; &amp;nbsp; &amp;nbsp; posicion&lt;/div&gt;&lt;div&gt;&amp;nbsp; &amp;nbsp; &amp;nbsp; &amp;nbsp; &amp;nbsp; &amp;nbsp; &amp;nbsp; &amp;nbsp; &amp;nbsp; &amp;nbsp;nombre&lt;/div&gt;&lt;div&gt;&lt;div&gt;&amp;nbsp; &amp;nbsp; &amp;nbsp; &amp;nbsp; &amp;nbsp; &amp;nbsp; &amp;nbsp; &amp;nbsp; &amp;nbsp; &amp;nbsp;apellido&lt;/div&gt;&lt;/div&gt;&lt;div&gt;&lt;br&gt;&lt;/div&gt;" style="text;html=1;align=left;verticalAlign=middle;resizable=0;points=[];autosize=1;strokeColor=none;fillColor=none;" vertex="1" parent="1">
          <mxGeometry x="20" y="230" width="150" height="100" as="geometry" />
        </mxCell>
        <mxCell id="b0C4ROp1VI93CXsgBm_J-17" value="PK&amp;nbsp; &amp;nbsp; &amp;nbsp; &amp;nbsp; id_partido&lt;div&gt;&amp;nbsp; &amp;nbsp; &amp;nbsp; &amp;nbsp; &amp;nbsp; &amp;nbsp; &amp;nbsp;fecha&lt;/div&gt;&lt;div&gt;&amp;nbsp; &amp;nbsp; &amp;nbsp; &amp;nbsp; &amp;nbsp; &amp;nbsp; &amp;nbsp;hora&lt;/div&gt;&lt;div&gt;&amp;nbsp; &amp;nbsp; &amp;nbsp; &amp;nbsp; &amp;nbsp; &amp;nbsp; &amp;nbsp;resultado&lt;/div&gt;&lt;div&gt;&amp;nbsp; &amp;nbsp; &amp;nbsp; &amp;nbsp; &amp;nbsp; &amp;nbsp; &amp;nbsp;duracion&lt;/div&gt;&lt;div&gt;FK&amp;nbsp; &amp;nbsp; &amp;nbsp; &amp;nbsp; &amp;nbsp;id_estadio&lt;/div&gt;&lt;div&gt;FK&amp;nbsp; &amp;nbsp; &amp;nbsp; &amp;nbsp; &amp;nbsp;fase&lt;/div&gt;&lt;div&gt;FK&amp;nbsp; &amp;nbsp; &amp;nbsp; &amp;nbsp; &amp;nbsp;id_equipo1&lt;/div&gt;&lt;div&gt;FK&amp;nbsp; &amp;nbsp; &amp;nbsp; &amp;nbsp; &amp;nbsp;id_equipo2&lt;/div&gt;&lt;div&gt;FK&amp;nbsp; &amp;nbsp; &amp;nbsp; &amp;nbsp; &amp;nbsp;id_equipoganador&lt;/div&gt;&lt;div&gt;&amp;nbsp; &amp;nbsp; &amp;nbsp; &amp;nbsp; &amp;nbsp; &amp;nbsp; &amp;nbsp;&lt;/div&gt;" style="text;html=1;align=left;verticalAlign=middle;resizable=0;points=[];autosize=1;strokeColor=none;fillColor=none;" vertex="1" parent="1">
          <mxGeometry x="270" y="330" width="160" height="170" as="geometry" />
        </mxCell>
        <mxCell id="b0C4ROp1VI93CXsgBm_J-18" value="PK&amp;nbsp; &amp;nbsp; &amp;nbsp; &amp;nbsp; &amp;nbsp; id_estadio&lt;div&gt;&lt;span style=&quot;background-color: initial; text-align: left;&quot;&gt;&amp;nbsp; &amp;nbsp; &amp;nbsp; &amp;nbsp; &amp;nbsp; nombre&amp;nbsp;&lt;/span&gt;&lt;br&gt;&lt;/div&gt;&lt;div style=&quot;text-align: left;&quot;&gt;&amp;nbsp; &amp;nbsp; &amp;nbsp; &amp;nbsp; &amp;nbsp; &amp;nbsp; &amp;nbsp; capacidad&lt;/div&gt;&lt;div style=&quot;text-align: left;&quot;&gt;&amp;nbsp;FK&amp;nbsp; &amp;nbsp; &amp;nbsp; &amp;nbsp; &amp;nbsp;ubicacion&lt;/div&gt;" style="text;html=1;align=center;verticalAlign=middle;resizable=0;points=[];autosize=1;strokeColor=none;fillColor=none;" vertex="1" parent="1">
          <mxGeometry x="10" y="360" width="130" height="70" as="geometry" />
        </mxCell>
        <mxCell id="b0C4ROp1VI93CXsgBm_J-19" value="PK&amp;nbsp; &amp;nbsp; &amp;nbsp; id_gol&lt;div&gt;FK&amp;nbsp; &amp;nbsp; &amp;nbsp; id_jugador&lt;/div&gt;&lt;div&gt;&lt;span style=&quot;background-color: initial;&quot;&gt;FK&amp;nbsp; &amp;nbsp; &amp;nbsp; id_partido&lt;/span&gt;&lt;/div&gt;&lt;div&gt;&amp;nbsp; &amp;nbsp; &amp;nbsp; &amp;nbsp; &amp;nbsp; &amp;nbsp;minuto&lt;/div&gt;&lt;div&gt;&amp;nbsp; &amp;nbsp; &amp;nbsp; &amp;nbsp; &amp;nbsp; &amp;nbsp;tipo_gol&lt;/div&gt;" style="text;html=1;align=left;verticalAlign=middle;resizable=0;points=[];autosize=1;strokeColor=none;fillColor=none;" vertex="1" parent="1">
          <mxGeometry x="20" y="460" width="110" height="90" as="geometry" />
        </mxCell>
        <mxCell id="b0C4ROp1VI93CXsgBm_J-20" value="&lt;div style=&quot;text-align: left;&quot;&gt;&lt;span style=&quot;background-color: initial;&quot;&gt;PK&amp;nbsp; &amp;nbsp; &amp;nbsp; &amp;nbsp;id_amonestaciones&lt;/span&gt;&lt;/div&gt;&lt;div style=&quot;text-align: left;&quot;&gt;&lt;span style=&quot;background-color: initial;&quot;&gt;&amp;nbsp; &amp;nbsp; &amp;nbsp; &amp;nbsp; &amp;nbsp; &amp;nbsp; tipo_tarjeta&lt;/span&gt;&lt;/div&gt;&lt;div style=&quot;text-align: left;&quot;&gt;&lt;span style=&quot;background-color: initial;&quot;&gt;&amp;nbsp; &amp;nbsp; &amp;nbsp; &amp;nbsp; &amp;nbsp; &amp;nbsp; minuto&lt;/span&gt;&lt;/div&gt;&lt;div style=&quot;text-align: left;&quot;&gt;&lt;span style=&quot;background-color: initial;&quot;&gt;&amp;nbsp; &amp;nbsp; &amp;nbsp; &amp;nbsp; &amp;nbsp; &amp;nbsp; motivo&lt;/span&gt;&lt;/div&gt;&lt;div style=&quot;text-align: left;&quot;&gt;&lt;span style=&quot;background-color: initial;&quot;&gt;FK&amp;nbsp; &amp;nbsp; &amp;nbsp; &amp;nbsp; id_jugador&lt;/span&gt;&lt;/div&gt;&lt;div style=&quot;text-align: left;&quot;&gt;FK&amp;nbsp; &amp;nbsp; &amp;nbsp; &amp;nbsp; id_partido&lt;/div&gt;&lt;div style=&quot;text-align: left;&quot;&gt;FK&amp;nbsp; &amp;nbsp; &amp;nbsp; &amp;nbsp; id_arbitro&lt;/div&gt;&lt;div&gt;&lt;br&gt;&lt;/div&gt;" style="text;html=1;align=center;verticalAlign=middle;resizable=0;points=[];autosize=1;strokeColor=none;fillColor=none;" vertex="1" parent="1">
          <mxGeometry x="190" y="610" width="170" height="130" as="geometry" />
        </mxCell>
        <mxCell id="b0C4ROp1VI93CXsgBm_J-22" value="PK&amp;nbsp; &amp;nbsp; id_arbitro&lt;div&gt;&amp;nbsp; &amp;nbsp; &amp;nbsp; &amp;nbsp; &amp;nbsp;nombre&lt;/div&gt;&lt;div&gt;&amp;nbsp; &amp;nbsp; &amp;nbsp; &amp;nbsp; &amp;nbsp;apellido&lt;/div&gt;&lt;div&gt;&amp;nbsp; &amp;nbsp; &amp;nbsp; &amp;nbsp; &amp;nbsp;nacionalidad&lt;br&gt;&lt;div&gt;&lt;br&gt;&lt;/div&gt;&lt;/div&gt;" style="text;html=1;align=left;verticalAlign=middle;resizable=0;points=[];autosize=1;strokeColor=none;fillColor=none;" vertex="1" parent="1">
          <mxGeometry x="460" y="700" width="120" height="90" as="geometry" />
        </mxCell>
        <mxCell id="b0C4ROp1VI93CXsgBm_J-43" style="edgeStyle=orthogonalEdgeStyle;rounded=0;orthogonalLoop=1;jettySize=auto;html=1;exitX=-0.019;exitY=0.314;exitDx=0;exitDy=0;entryX=-0.002;entryY=0.141;entryDx=0;entryDy=0;entryPerimeter=0;exitPerimeter=0;" edge="1" parent="1" source="b0C4ROp1VI93CXsgBm_J-19" target="b0C4ROp1VI93CXsgBm_J-16">
          <mxGeometry relative="1" as="geometry">
            <Array as="points">
              <mxPoint x="-30" y="488" />
              <mxPoint x="-30" y="244" />
            </Array>
          </mxGeometry>
        </mxCell>
        <mxCell id="b0C4ROp1VI93CXsgBm_J-44" style="edgeStyle=orthogonalEdgeStyle;rounded=0;orthogonalLoop=1;jettySize=auto;html=1;exitX=1;exitY=0.4;exitDx=0;exitDy=0;entryX=-0.003;entryY=0.07;entryDx=0;entryDy=0;entryPerimeter=0;exitPerimeter=0;" edge="1" parent="1" source="b0C4ROp1VI93CXsgBm_J-3" target="b0C4ROp1VI93CXsgBm_J-17">
          <mxGeometry relative="1" as="geometry">
            <Array as="points">
              <mxPoint x="230" y="502" />
              <mxPoint x="230" y="342" />
            </Array>
          </mxGeometry>
        </mxCell>
        <mxCell id="b0C4ROp1VI93CXsgBm_J-49" style="edgeStyle=orthogonalEdgeStyle;rounded=0;orthogonalLoop=1;jettySize=auto;html=1;exitX=1;exitY=0.5;exitDx=0;exitDy=0;entryX=0.001;entryY=0.067;entryDx=0;entryDy=0;entryPerimeter=0;" edge="1" parent="1" source="b0C4ROp1VI93CXsgBm_J-5" target="b0C4ROp1VI93CXsgBm_J-17">
          <mxGeometry relative="1" as="geometry" />
        </mxCell>
        <mxCell id="b0C4ROp1VI93CXsgBm_J-50" style="edgeStyle=orthogonalEdgeStyle;rounded=0;orthogonalLoop=1;jettySize=auto;html=1;entryX=0.002;entryY=0.14;entryDx=0;entryDy=0;entryPerimeter=0;" edge="1" parent="1" source="b0C4ROp1VI93CXsgBm_J-20" target="b0C4ROp1VI93CXsgBm_J-16">
          <mxGeometry relative="1" as="geometry">
            <mxPoint x="20" y="720" as="sourcePoint" />
            <Array as="points">
              <mxPoint y="680" />
              <mxPoint y="244" />
            </Array>
          </mxGeometry>
        </mxCell>
      </root>
    </mxGraphModel>
  </diagram>
</mxfile>
